<svg xmlns="http://www.w3.org/2000/svg" width="108" height="118.531" viewBox="0 0 108 118.531" id="svg-1">
  <defs id="defs-2">
    <style id="style-3">
	.cls-1 { fill-rule: evenodd; }
</style>
  </defs>
  <path id="_3.svg" data-name="3.svg" class="cls-1" d="M1793.68,441.577h38.64a3.12,3.12,0,1,0,0-6.239h-38.64A3.12,3.12,0,1,0,1793.68,441.577Zm69.6,0.792a0.858,0.858,0,0,0-.1-0.1l-11.54-11.59v-1.813a9.245,9.245,0,0,0-9.24-9.223h-1.82a0.165,0.165,0,0,0-.04-0.046l-16.76-16.737a15.1,15.1,0,0,0-21.3-.006l-7.84,7.785a3.124,3.124,0,0,0,4.41,4.425l7.84-7.791a8.839,8.839,0,0,1,12.47,0l12.39,12.371H1783.6a9.245,9.245,0,0,0-9.24,9.223v1.907l-11.25,11.171a14.972,14.972,0,0,0-4.11,10.327v49.685A15.071,15.071,0,0,0,1774.06,517h77.87A15.073,15.073,0,0,0,1867,501.956V452.271A15.02,15.02,0,0,0,1863.28,442.369Zm-88.92-2.8V443.1a3.125,3.125,0,0,0,6.25,0V428.866a2.99,2.99,0,0,1,2.99-2.984h58.8a2.99,2.99,0,0,1,2.99,2.984V443.1a3.125,3.125,0,0,0,6.25,0v-3.6l4.66,4.656-29.04,29-3.48-3.469a15.072,15.072,0,0,0-21.3,0l-3.48,3.47-29.15-29.109Zm86.39,62.385a8.817,8.817,0,0,1-8.82,8.8h-77.87a8.815,8.815,0,0,1-8.81-8.8V452.271a8.934,8.934,0,0,1,.65-3.34l28.68,28.638-21,20.972a3.123,3.123,0,0,0,4.42,4.412l28.9-28.854a8.814,8.814,0,0,1,12.46,0l29.43,29.381a3.123,3.123,0,1,0,4.42-4.412l-21.53-21.5,28.49-28.448a8.846,8.846,0,0,1,.58,3.151v49.685Zm-25.3-48.525a3.124,3.124,0,0,0-3.13-3.12h-38.64a3.12,3.12,0,1,0,0,6.24h38.64A3.124,3.124,0,0,0,1835.45,453.431Z" transform="translate(-1759 -398.469)" fill="#e9482b" fill-opacity="1" type="solidColor"></path>
</svg>