<svg xmlns="http://www.w3.org/2000/svg" width="119" height="119" viewBox="0 0 119 119" id="svg-1">
  <defs id="defs-2">
    <style id="style-3">
	.cls-1 { fill-rule: evenodd; }
</style>
  </defs>
  <path id="_1.svg" data-name="1.svg" class="cls-1" d="M1602.5,432.875a3.132,3.132,0,0,0,0-6.263,3.758,3.758,0,1,1,3.75-3.759,3.135,3.135,0,0,0,6.27,0A10.025,10.025,0,1,0,1602.5,432.875Zm-23.68,1.671,18.96,40.155a5.2,5.2,0,0,0,9.41,0l18.94-40.127a3.057,3.057,0,0,0,.16-0.393,25.9,25.9,0,1,0-47.69-.214A5.391,5.391,0,0,0,1578.82,434.546Zm23.68-30.284a19.671,19.671,0,0,1,17.94,27.671,0.551,0.551,0,0,0-.04.116l-17.92,37.942-17.91-37.953a0.054,0.054,0,0,1-.01-0.032c-0.04-.111-0.08-0.22-0.12-0.326A19.67,19.67,0,0,1,1602.5,404.262Zm37.38,72.748a3.758,3.758,0,1,0-3.76-3.757A3.754,3.754,0,0,0,1639.88,477.01Zm5.75-57.717h-5.27a3.132,3.132,0,1,0,0,6.263h5.27a10.094,10.094,0,0,1,10.1,10.066v22.5h-27.91a3.13,3.13,0,0,0-3.13,3.132v27.475h-37.02a11.93,11.93,0,0,0-8.45-8.44v-18.5a3.2,3.2,0,0,0-.18-1.032,3.125,3.125,0,0,0-3.08-2.638h-26.7v-22.5a10.094,10.094,0,0,1,10.1-10.066h5.16a3.132,3.132,0,0,0,0-6.263h-5.16A16.364,16.364,0,0,0,1543,435.622v65.043A16.364,16.364,0,0,0,1559.36,517h86.27a16.364,16.364,0,0,0,16.36-16.33V435.622A16.364,16.364,0,0,0,1645.63,419.293Zm-96.37,45.092h23.7v15.951a11.936,11.936,0,0,0-8.26,8.393h-15.44V464.385Zm23.7,46.347h-13.6a10.094,10.094,0,0,1-10.1-10.067v-5.673h15.47a11.953,11.953,0,0,0,8.23,8.262v7.478Zm51.73,0h-45.47v-9.438a2.827,2.827,0,0,0,.09-0.716,3.13,3.13,0,0,0-3.13-3.131,5.652,5.652,0,1,1,5.64-5.653,3.13,3.13,0,0,0,3.13,3.132,3.049,3.049,0,0,0,1.04-.192,3.175,3.175,0,0,0,1.25.258h37.45v15.74Zm31.04-10.067a10.094,10.094,0,0,1-10.1,10.067h-14.68v-15.74h24.78v5.673Zm0-11.936h-24.78V464.385h24.78v24.344Z" transform="translate(-1543 -398)" fill="#e9482b" fill-opacity="1" type="solidColor"></path>
</svg>