<svg xmlns="http://www.w3.org/2000/svg" width="103.71" height="119.031" viewBox="0 0 103.71 119.031" id="svg-1">
  <defs id="defs-2">
    <style id="style-3">
	.cls-1 { fill-rule: evenodd; }
</style>
  </defs>
  <path id="_2.svg" data-name="2.svg" class="cls-1" d="M1449.76,453.069a4.38,4.38,0,1,0-6.11-.951A4.39,4.39,0,0,0,1449.76,453.069Zm-12.36,9.062a4.384,4.384,0,1,0-6.11-.951A4.391,4.391,0,0,0,1437.4,462.131Zm-12.36,9.061a4.383,4.383,0,1,0-6.12-.951A4.4,4.4,0,0,0,1425.04,471.192Zm20.46,57.945a1.6,1.6,0,0,0-.1-0.289,3.046,3.046,0,0,0-.1-0.292,2.4,2.4,0,0,0-.13-0.23,2.205,2.205,0,0,0-.19-0.312,0.065,0.065,0,0,0-.02-0.034,2.11,2.11,0,0,0-.18-0.2,2.5,2.5,0,0,0-.18-0.21l-13.82-13.015a3.13,3.13,0,1,0-4.28,4.567l11.04,10.4c-5.95,4.022-11.09,6.211-14.7,6.211h0a10.294,10.294,0,0,1-4.76-1.141h0a1.6,1.6,0,0,0-.24-0.142c-12.61-6.752-27.25-19.477-37.3-32.419l-1.03-1.333c-10.06-12.953-18.77-30.3-22.2-44.193a1.323,1.323,0,0,0-.05-0.192,8.449,8.449,0,0,1-.05-4.689,39.373,39.373,0,0,1,7.37-11.867l8.33,13.511a3.129,3.129,0,0,0,5.32-3.294l-10.32-16.729a3.061,3.061,0,0,0-.6-0.692,1.3,1.3,0,0,0-.12-0.143,3.119,3.119,0,0,0-4.42.047c-5.56,5.7-9.41,11.426-11.44,17.032a14.386,14.386,0,0,0-.06,8.6c3.63,14.665,12.77,32.89,23.31,46.455l1.03,1.333c10.52,13.556,25.91,26.916,39.22,34.06a16.2,16.2,0,0,0,8.01,2.061h0c5.72,0,12.95-3.24,21.49-9.63,0.08-.063.15-0.139,0.23-0.209,0.06-.055.12-0.1,0.18-0.156,0.01-.01.01-0.022,0.02-0.032a2.2,2.2,0,0,0,.22-0.291c0.05-.071.11-0.137,0.16-0.21,0.05-.1.09-0.2,0.14-0.3a2.692,2.692,0,0,0,.12-0.256c0.03-.1.05-0.2,0.08-0.3s0.05-.188.07-0.284,0.01-.216.02-0.325c0-.091.01-0.181,0.01-0.271,0-.112-0.03-0.222-0.04-0.333A2.37,2.37,0,0,0,1445.5,529.137Zm5.02-17.7c-3.31-4.137-14.49-13.568-17.35-15.9a8.082,8.082,0,0,0-6.19-2,9.481,9.481,0,0,0-6.18,3.862c-0.91,1.15-2.53,3.165-3.1,3.834-3.76,4.423-6.38,2.95-8.14,1.831-4.54-3.725-9.19-9.347-13.54-14.892-0.06-.08-0.11-0.153-0.17-0.222l-0.03-.038a1.915,1.915,0,0,0-.15-0.192c-4.3-5.6-8.61-11.517-11.11-16.853-0.66-1.974-1.46-4.867,3.75-7.448,0.09-.041.23-0.1,0.41-0.173a24.289,24.289,0,0,0,7.43-4.492,8.293,8.293,0,0,0,1.77-9.8,186.9,186.9,0,0,0-13.15-21.7c-3.79-5.244-9.35-5.079-12.91-2.712l3.45,5.225c1.09-.729,2.75-1.119,4.4,1.163a184.359,184.359,0,0,1,12.59,20.762,2.02,2.02,0,0,1-.57,2.631,19.271,19.271,0,0,1-5.44,3.154c-0.34.143-.59,0.253-0.73,0.32-4.68,2.32-9.68,6.845-6.87,15.232a2.037,2.037,0,0,0,.13.321c2.76,5.97,7.39,12.327,11.98,18.307,0.03,0.031.05,0.062,0.08,0.092q0.06,0.086.12,0.165c4.65,5.931,9.66,11.989,14.75,16.13a3.043,3.043,0,0,0,.3.211c7.44,4.749,13.03,1.014,16.4-2.954,0.68-.8,2.48-3.036,3.24-3.991a0.75,0.75,0,0,1,.08-0.108,3.458,3.458,0,0,1,1.95-1.442,2.169,2.169,0,0,1,1.5.64c4.44,3.627,14.15,12.038,16.49,15.048a3.411,3.411,0,0,0,.26.3c2.99,2.98,2.06,4.765,1.76,5.352a3.136,3.136,0,0,0,1.32,4.228,3.075,3.075,0,0,0,1.44.357,3.134,3.134,0,0,0,2.78-1.681C1454.27,522.066,1456,517.005,1450.52,511.432Zm-37.84-31.178a4.383,4.383,0,1,0-6.12-.951A4.4,4.4,0,0,0,1412.68,480.254Z" transform="translate(-1350.63 -422.969)" fill="#e9482b" fill-opacity="1" type="solidColor"></path>
</svg>